<?xml version="1.0" standalone="no"?>
<!DOCTYPE svg PUBLIC "-//W3C//DTD SVG 20010904//EN" "http://www.w3.org/TR/2001/REC-SVG-20010904/DTD/svg10.dtd">
<svg version="1.0" xmlns="http://www.w3.org/2000/svg"
    width="288.000000pt" height="368.000000pt" viewBox="0 0 288.000000 368.000000"
    preserveAspectRatio="xMidYMid meet" fill="#fc0303">

    <g transform=" translate(0.000000,368.000000) scale(0.100000,-0.100000)" stroke=" none">
        <path
            d=" M1007 3673 c-4 -3 -7 -57 -7 -120 l0 -113 -115 0 -115 0 0 -115 0
    -115 -265 0 -265 0 0 -115 0 -115 -115 0 -115 0 0 -120 0 -120 110 0 110 0 0
    -115 0 -115 30 0 30 0 2 -1142 3 -1143 113 -3 112 -3 0 -109 0 -110 890 0 890
    0 0 110 0 109 118 3 117 3 3 1143 2 1142 55 0 55 0 0 115 0 115 105 0 105 0 0
    120 0 119 -96 3 -96 3 -1 110 -2 110 -297 3 -298 2 0 115 0 115 -115 0 -114 0
    -3 118 -3 117 -411 3 c-226 1 -413 -1 -417 -5z m833 -348 l0 -115 -420 0 -420
    0 0 115 0 115 420 0 420 0 0 -115z m555 -465 l0 -115 -1075 0 -1075 0 -3 104
    c-1 58 0 111 2 118 5 11 196 13 1078 11 l1073 -3 0 -115z m-325 -1495 l0
    -1145 -772 2 -773 3 -3 1143 -2 1142 775 0 775 0 0 -1145z" />
        <path
            d=" M744 2341 c-2 -2 -4 -330 -4 -728 l0 -723 120 0 120 0 -2 726 -3 725
    -113 2 c-63 1 -116 0 -118 -2z" />
        <path d=" M1780 1618 l0 -728 115 0 115 0 -2 726 -3 725 -113 2 -112 2 0 -727z" />
        <path d=" M1260 1270 l0 -730 115 0 115 0 0 730 0 730 -115 0 -115 0 0 -730z" />
    </g>
</svg>