<?xml version="1.0" standalone="no"?>
<!DOCTYPE svg PUBLIC "-//W3C//DTD SVG 20010904//EN"
 "http://www.w3.org/TR/2001/REC-SVG-20010904/DTD/svg10.dtd">
<svg version="1.0" xmlns="http://www.w3.org/2000/svg"
 width="93.000000pt" height="194.000000pt" viewBox="0 0 93.000000 194.000000"
 preserveAspectRatio="xMidYMid meet" fill="#047cfc">

<g transform="translate(0.000000,194.000000) scale(0.100000,-0.100000)" stroke="none">
<path d="M400 1795 l0 -125 -65 0 -65 0 0 -125 0 -125 65 0 65 0 0 125 0 125
60 0 60 0 0 -125 0 -125 65 0 65 0 0 125 0 125 -65 0 -65 0 0 125 0 125 -60 0
-60 0 0 -125z"/>
<path d="M140 1285 l0 -125 -65 0 -65 0 0 -190 0 -190 65 0 65 0 0 190 0 190
65 0 65 0 0 125 0 125 -65 0 -65 0 0 -125z"/>
<path d="M400 1285 l0 -125 60 0 60 0 0 125 0 125 -60 0 -60 0 0 -125z"/>
<path d="M650 1285 l0 -125 65 0 65 0 0 -190 0 -190 65 0 65 0 0 190 0 190
-65 0 -65 0 0 125 0 125 -65 0 -65 0 0 -125z"/>
<path d="M400 965 l0 -65 60 0 60 0 0 65 0 65 -60 0 -60 0 0 -65z"/>
<path d="M140 705 l0 -65 -65 0 -65 0 0 -60 0 -60 65 0 65 0 0 -255 0 -255
320 0 320 0 0 255 0 255 65 0 65 0 0 60 0 60 -65 0 -65 0 0 65 0 65 -65 0 -65
0 0 -65 0 -65 -190 0 -190 0 0 65 0 65 -65 0 -65 0 0 -65z"/>
</g>
</svg>
