<?xml version="1.0" standalone="no"?>
<!DOCTYPE svg PUBLIC "-//W3C//DTD SVG 20010904//EN"
 "http://www.w3.org/TR/2001/REC-SVG-20010904/DTD/svg10.dtd">
<svg version="1.0" xmlns="http://www.w3.org/2000/svg"
 width="940.000000pt" height="788.000000pt" viewBox="0 0 940.000000 788.000000"
 preserveAspectRatio="xMidYMid meet">

<g transform="translate(0.000000,788.000000) scale(0.100000,-0.100000)"
fill="#f5f5f5" stroke="none">
<path d="M0 3940 l0 -3940 4700 0 4700 0 0 3940 0 3940 -4700 0 -4700 0 0
-3940z m3470 2034 c244 -28 494 -92 736 -189 190 -76 431 -205 426 -227 -1 -5
-2 -737 -2 -1628 l0 -1620 -57 37 c-158 101 -473 229 -713 289 -432 109 -910
103 -1299 -16 -35 -11 -85 -20 -112 -20 -42 0 -55 5 -87 34 l-37 34 0 1571 0
1570 30 31 c19 20 51 37 95 50 104 31 276 67 375 79 50 6 101 13 115 15 73 10
409 4 530 -10z m2818 -318 c15 -8 222 -210 460 -448 411 -412 432 -435 432
-470 0 -100 11 -98 -510 -98 -486 0 -488 0 -509 61 -7 21 -11 159 -11 411 l0
378 -557 -2 -558 -3 0 -1540 0 -1540 985 0 985 0 3 96 3 95 84 84 85 85 0
-243 0 -243 -25 -24 -24 -25 -1111 0 -1111 0 -24 25 -25 24 0 1663 c0 1512 1
1666 16 1686 9 13 26 27 38 32 11 5 319 9 684 9 557 1 667 -1 690 -13z m-4196
-45 l33 -29 3 -1586 2 -1586 925 -2 925 -3 27 -28 c41 -40 39 -99 -5 -138
l-32 -29 -981 0 c-1054 0 -1021 -2 -1049 49 -7 13 -10 558 -10 1671 l0 1652
29 29 c40 40 89 40 133 0z m6050 -709 c60 -30 123 -92 156 -157 22 -43 26 -63
27 -140 0 -111 -20 -157 -108 -252 -68 -72 -101 -93 -148 -93 -29 0 -54 21
-221 187 -202 202 -215 221 -184 280 25 50 152 160 209 183 73 28 203 24 269
-8z m-369 -530 c183 -184 187 -189 187 -230 0 -79 -89 -147 -165 -128 -15 4
-103 83 -205 184 -148 147 -179 183 -185 213 -10 56 32 122 95 148 56 23 77 9
273 -187z m-466 -72 c15 -6 108 -91 205 -188 189 -187 204 -210 179 -270 -6
-15 -221 -234 -477 -487 -419 -414 -472 -463 -527 -487 -193 -86 -511 -208
-541 -208 -42 0 -81 30 -96 74 -10 30 -7 45 28 133 74 184 173 426 193 468 14
29 157 177 480 496 404 397 490 477 521 479 4 0 19 -5 35 -10z"/>
<path d="M3033 4585 c-184 -40 -305 -157 -307 -297 -1 -81 23 -112 93 -116 28
-2 51 -2 51 0 0 2 -9 21 -20 43 -34 67 -19 143 41 204 43 46 179 102 179 75 0
-11 -50 -203 -60 -228 -6 -18 -17 -26 -33 -26 -49 0 -65 -52 -22 -72 14 -6 25
-16 25 -22 0 -21 -47 -111 -74 -143 -33 -40 -80 -44 -140 -13 -45 22 -72 14
-82 -25 -9 -37 0 -52 48 -77 54 -28 137 -29 192 -3 52 25 99 93 132 192 l28
82 73 6 c77 8 92 20 78 65 -5 17 -15 20 -66 20 -36 0 -59 4 -59 11 0 6 7 38
15 71 9 32 19 85 23 116 l7 57 158 -2 157 -1 6 23 c8 31 -1 44 -42 61 -44 18
-315 18 -401 -1z"/>
<path d="M4007 4529 c-26 -15 -21 -47 13 -86 150 -170 121 -437 -61 -553 -42
-27 -50 -37 -47 -59 4 -36 35 -38 101 -8 120 56 206 174 215 297 8 122 -36
249 -123 348 -55 62 -74 74 -98 61z"/>
<path d="M3602 4487 c-96 -77 -165 -187 -198 -317 -38 -150 21 -291 146 -350
41 -19 52 -21 65 -10 25 21 17 45 -25 79 -138 110 -112 366 53 534 59 61 65
75 45 95 -19 19 -29 15 -86 -31z"/>
<path d="M3852 4238 c-13 -6 -43 -38 -66 -69 -49 -65 -46 -65 -91 19 -30 55
-40 61 -71 37 -18 -14 -18 -17 24 -96 l44 -83 -41 -39 c-46 -43 -49 -56 -23
-80 27 -25 39 -21 70 22 l28 39 37 -34 c49 -45 110 -48 148 -6 57 62 75 116
43 129 -11 4 -29 -9 -56 -41 -22 -25 -48 -46 -58 -46 -10 0 -30 14 -44 31
l-26 30 42 60 c41 58 44 60 83 57 37 -3 40 -1 43 24 2 18 -4 31 -20 42 -26 18
-34 19 -66 4z"/>
<path d="M6330 5090 l0 -270 277 0 278 0 -270 270 c-148 149 -273 270 -277
270 -5 0 -8 -121 -8 -270z"/>
<path d="M7929 4814 c-30 -9 -67 -34 -108 -71 l-62 -58 161 -160 161 -160 58
62 c62 67 81 111 81 184 -1 91 -75 185 -165 208 -54 14 -68 13 -126 -5z"/>
<path d="M6860 3785 l-415 -415 155 -155 c85 -85 158 -154 162 -153 4 2 192
187 418 412 l412 409 -159 159 -158 158 -415 -415z"/>
<path d="M6362 3274 c-5 -11 -46 -109 -91 -219 -45 -110 -89 -217 -98 -238 -9
-20 -14 -39 -11 -42 5 -5 498 192 510 204 4 3 -62 76 -146 160 -136 136 -155
151 -164 135z"/>
</g>
</svg>
